<svg id="Layer_5" data-name="Layer 5" xmlns="http://www.w3.org/2000/svg" xmlns:xlink="http://www.w3.org/1999/xlink" viewBox="0 0 3200 3200"><defs><style>.cls-1{fill:none;}.cls-2{clip-path:url(#clip-path);}.cls-3{fill:#fff;}</style><clipPath id="clip-path"><rect class="cls-1" x="278.58" y="1450.14" width="2626.45" height="573.04"/></clipPath></defs><title>graphic_waveArtboard 11</title><g class="cls-2"><path class="cls-3" d="M428.32,2023.18a138.81,138.81,0,0,1-110-53.68,136.79,136.79,0,0,1,25-193.06l388.38-297.5a139.46,139.46,0,0,1,169.67,0l303.46,232.37,302.92-232.37a139.61,139.61,0,0,1,169.77,0l303,232.37,302.73-232.37a139.38,139.38,0,0,1,169.84.1l387.17,297.39a137,137,0,0,1,24.79,193.31c-47,60-134.2,71.08-194.82,24.59l-302.06-232.4-302.85,232.4a139.74,139.74,0,0,1-169.78,0l-302.78-232.4-303,232.4a139.84,139.84,0,0,1-169.65.1l-303.6-232.61L513,1994.43a138.68,138.68,0,0,1-84.67,28.75"/></g></svg>