<svg id="stopwatch" xmlns="http://www.w3.org/2000/svg" xmlns:xlink="http://www.w3.org/1999/xlink" viewBox="0 0 3200 3200"><defs><style>.cls-1{fill:none;}.cls-2{clip-path:url(#clip-path);}.cls-3{fill:#fff;}</style><clipPath id="clip-path"><rect class="cls-1" x="467.03" y="727.84" width="2244.71" height="1783.63" transform="translate(-677.9 1713.59) rotate(-47.91)"/></clipPath></defs><title>graphic_stopwatchArtboard 11</title><g class="cls-2"><path class="cls-3" d="M916.47,2364.72c-316.75-286.08-342.11-776.81-56.13-1093.46s776.73-341.87,1093.82-55.5,342.11,776.81,55.82,1093.8C1724,2626.21,1233.22,2650.79,916.47,2364.72Zm1060-1285.58,57.19-63.33,111,100.28-57.5,63.66Zm115.17-366.82,349.43,315.58-93.32,103.33L1998.3,815.65Zm70,561.3,75.56-83.67,74,66.86c24,21.68,59.2,19.57,80.88-4.42L2564,1062.06c21.68-24,19.9-58.9-4.11-80.58L2125.74,589.41c-24.34-22-61.57-22.32-83.24,1.68L1870.61,781.41c-21.68,24-17.87,61.34,6.14,83l74.35,67.15-75.56,83.67C1519.83,813.2,1058.41,877,773,1193,443.68,1557.65,472.2,2122.64,837.3,2452.38c364.76,329.44,929.76,301.09,1259.4-63.89C2382.39,2072.17,2399,1606.66,2161.62,1273.62Z"/><path class="cls-3" d="M1155.39,2185.31l63.82-70.67a58.85,58.85,0,0,0-87.35-78.9L1068,2106.41c-146-168.16-156.17-417.63-26.43-598.82l67.68,61.13a58.84,58.84,0,1,0,78.88-87.33l-67-60.53c167-142,412.58-154.51,591.72-28.42l-58.1,64.33a58.85,58.85,0,0,0,87.35,78.89l58.1-64.33c146,168.16,159.12,413,34.12,593.66l-67-60.53a58.84,58.84,0,1,0-78.87,87.33l67.35,60.83C1589.38,2300.68,1339.87,2316.2,1155.39,2185.31Zm683.47-841.89c-246.4-222.53-627.71-203.19-850.18,43.14s-203,627.63,43.39,850.16,627.71,203.2,850.18-43.13C2104.42,1947.6,2085.26,1566,1838.86,1343.42Z"/><path class="cls-3" d="M1374.65,1857.41c-37-33.43-39.62-90.86-6.5-127.53,33.41-37,90.85-39.59,127.52-6.47s39.63,90.86,6.51,127.53S1411.66,1890.83,1374.65,1857.41Zm342.79-151-89,8a206.29,206.29,0,0,0-54.24-78c-85-76.78-216.69-70.42-293.75,14.91-76.77,85-70.37,216.66,15,293.75a208.08,208.08,0,0,0,343.43-113.48l88.66-7.67a58.85,58.85,0,0,0,53.36-63.78C1778,1727.22,1749.74,1703.52,1717.44,1706.43Z"/></g></svg>