<svg id="Layer_4" data-name="Layer 4" xmlns="http://www.w3.org/2000/svg" xmlns:xlink="http://www.w3.org/1999/xlink" viewBox="0 0 3200 3200"><defs><style>.cls-1{fill:none;}.cls-2{clip-path:url(#clip-path);}.cls-3{fill:#fff;}</style><clipPath id="clip-path"><rect class="cls-1" x="912.91" y="565.4" width="1451.73" height="2190.41" transform="translate(-680.89 1910.38) rotate(-51.52)"/></clipPath></defs><title>graphic_pipeArtboard 11</title><g class="cls-2"><path class="cls-3" d="M1049.86,854.42,1597,1289.26a66,66,0,0,1,24.91,53.71,64.52,64.52,0,0,1-29.1,51.37A588.62,588.62,0,0,0,1457,1518.81c-203.63,256.24-159.81,631.31,97.68,835.94s632.49,163,836.13-93.26c206.07-259.31,163.87-636.42-93.61-841L1257,593.75Zm423.89,1602.21c-314-249.53-367.4-706.72-119.09-1019.18a721.6,721.6,0,0,1,95.58-99.17L917.8,915.14a64.9,64.9,0,0,1-10.67-91.32l288.4-362.88c22.2-27.94,63.29-32.54,91.37-10.23l1091.58,867.51c314,249.53,365.5,709.11,115,1024.29C2244.91,2655.31,1787.73,2706.16,1473.75,2456.63Z"/><path class="cls-3" d="M2092.25,1678.38c-117.45-93.34-288.19-73.92-380.8,42.62s-72.63,287.52,44.47,380.58c117.44,93.34,288.18,73.92,380.79-42.62S2209.69,1771.72,2092.25,1678.38ZM1674.68,2203.8c-173.6-138-203.17-391.07-65.88-563.83s390.54-201.09,564.14-63.13,203.17,391.07,65.88,563.83S1848.28,2341.77,1674.68,2203.8Z"/></g></svg>